<svg xmlns="http://www.w3.org/2000/svg" width="23.625" height="13.148" viewBox="0 0 23.625 13.148"><defs><style>.a{fill:#e7e7e7;}</style></defs><path class="a" d="M261.059,26.5a2.221,2.221,0,0,0,1.523-.516,1.8,1.8,0,0,0,.609-1.371h3.176a4.375,4.375,0,0,1-.7,2.367,4.691,4.691,0,0,1-1.9,1.664,5.936,5.936,0,0,1-2.649.586,5.515,5.515,0,0,1-4.289-1.723,6.862,6.862,0,0,1-1.57-4.781v-.223a6.762,6.762,0,0,1,1.558-4.676,5.441,5.441,0,0,1,4.278-1.746,5.3,5.3,0,0,1,3.808,1.359,4.761,4.761,0,0,1,1.465,3.6h-3.176a2.282,2.282,0,0,0-.609-1.594,2.028,2.028,0,0,0-1.547-.621,2.051,2.051,0,0,0-1.793.867,5,5,0,0,0-.6,2.789v.351a5.053,5.053,0,0,0,.6,2.813A2.067,2.067,0,0,0,261.059,26.5Zm12.515,0a2.224,2.224,0,0,0,1.524-.516,1.81,1.81,0,0,0,.609-1.371h3.176a4.375,4.375,0,0,1-.7,2.367,4.688,4.688,0,0,1-1.9,1.664,5.932,5.932,0,0,1-2.648.586,5.513,5.513,0,0,1-4.289-1.723,6.862,6.862,0,0,1-1.571-4.781v-.223a6.762,6.762,0,0,1,1.559-4.676,5.441,5.441,0,0,1,4.277-1.746,5.3,5.3,0,0,1,3.809,1.359,4.764,4.764,0,0,1,1.465,3.6h-3.176a2.291,2.291,0,0,0-.609-1.594,2.029,2.029,0,0,0-1.547-.621,2.051,2.051,0,0,0-1.793.867,4.989,4.989,0,0,0-.6,2.789v.351a5.043,5.043,0,0,0,.6,2.813A2.066,2.066,0,0,0,273.574,26.5Z" transform="translate(-255.258 -16.086)"/></svg>