<svg id="ejRSOGm9MpE1" xmlns="http://www.w3.org/2000/svg" xmlns:xlink="http://www.w3.org/1999/xlink" viewBox="0 0 136 122.500000" shape-rendering="geometricPrecision" text-rendering="geometricPrecision"><style><![CDATA[#ejRSOGm9MpE4_ts {animation: ejRSOGm9MpE4_ts__ts 3000ms linear 3 normal forwards}@keyframes ejRSOGm9MpE4_ts__ts { 0% {transform: translate(84.215000px,61.244997px) scale(0.962661,0.962661);animation-timing-function: cubic-bezier(0,0.460000,0.375000,0.985000)} 30% {transform: translate(84.215000px,61.244997px) scale(1,1);animation-timing-function: cubic-bezier(0.180000,0.175000,0.670000,0.595000)} 66.666667% {transform: translate(84.215000px,61.244997px) scale(1,1);animation-timing-function: cubic-bezier(0,0.410000,0.375000,0.955000)} 100% {transform: translate(84.215000px,61.244997px) scale(0.962661,0.962661)}} #ejRSOGm9MpE16_to {animation: ejRSOGm9MpE16_to__to 3000ms linear 3 normal forwards}@keyframes ejRSOGm9MpE16_to__to { 0% {transform: translate(84.252102px,97.278835px)} 50% {transform: translate(84.252102px,95.774185px)} 100% {transform: translate(84.252102px,97.278835px)}} #ejRSOGm9MpE18_to {animation: ejRSOGm9MpE18_to__to 3000ms linear 3 normal forwards}@keyframes ejRSOGm9MpE18_to__to { 0% {transform: translate(44.804248px,71.251969px);animation-timing-function: cubic-bezier(0.370000,0.005000,0.420000,0.830000)} 40% {transform: translate(52.560000px,63.025371px)} 66.666667% {transform: translate(61.134215px,71.254386px);animation-timing-function: cubic-bezier(0.420000,0,0.575000,0.725000)} 100% {transform: translate(44.804248px,71.251969px)}}]]></style><g id="ejRSOGm9MpE2" style="isolation:isolate"><g id="ejRSOGm9MpE3"><g id="ejRSOGm9MpE4_ts" transform="translate(84.215000,61.244997) scale(0.962661,0.962661)"><g id="ejRSOGm9MpE4" transform="translate(-84.215000,-61.244997)"><line id="ejRSOGm9MpE5" x1="51.060000" y1="80.290000" x2="51.060000" y2="83.290000" fill="none" stroke="rgb(250,181,56)" stroke-width="0.750000" stroke-linecap="round" stroke-linejoin="round" stroke-miterlimit="1"/><line id="ejRSOGm9MpE6" x1="51.060000" y1="90.770000" x2="51.060000" y2="101.990000" fill="none" stroke="rgb(250,181,56)" stroke-width="0.750000" stroke-linecap="round" stroke-linejoin="round" stroke-miterlimit="1" stroke-dasharray="7.480000,7.480000"/><polyline id="ejRSOGm9MpE7" points="51.060000,105.730000 51.060000,108.730000 54.060000,108.730000" fill="none" stroke="rgb(250,181,56)" stroke-width="0.750000" stroke-linecap="round" stroke-linejoin="round" stroke-miterlimit="1"/><line id="ejRSOGm9MpE8" x1="59.550000" y1="108.730000" x2="111.630000" y2="108.730000" fill="none" stroke="rgb(250,181,56)" stroke-width="0.750000" stroke-linecap="round" stroke-linejoin="round" stroke-miterlimit="1" stroke-dasharray="5.480000,5.480000"/><polyline id="ejRSOGm9MpE9" points="114.370000,108.730000 117.370000,108.730000 117.370000,105.730000" fill="none" stroke="rgb(250,181,56)" stroke-width="0.750000" stroke-linecap="round" stroke-linejoin="round" stroke-miterlimit="1"/><line id="ejRSOGm9MpE10" x1="117.370000" y1="99.800000" x2="117.370000" y2="19.730000" fill="none" stroke="rgb(250,181,56)" stroke-width="0.750000" stroke-linecap="round" stroke-linejoin="round" stroke-miterlimit="1" stroke-dasharray="5.930000,5.930000"/><polyline id="ejRSOGm9MpE11" points="117.370000,16.760000 117.370000,13.760000 114.370000,13.760000" fill="none" stroke="rgb(250,181,56)" stroke-width="0.750000" stroke-linecap="round" stroke-linejoin="round" stroke-miterlimit="1"/><line id="ejRSOGm9MpE12" x1="108.890000" y1="13.760000" x2="56.800000" y2="13.760000" fill="none" stroke="rgb(250,181,56)" stroke-width="0.750000" stroke-linecap="round" stroke-linejoin="round" stroke-miterlimit="1" stroke-dasharray="5.480000,5.480000"/><polyline id="ejRSOGm9MpE13" points="54.060000,13.760000 51.060000,13.760000 51.060000,16.760000" fill="none" stroke="rgb(250,181,56)" stroke-width="0.750000" stroke-linecap="round" stroke-linejoin="round" stroke-miterlimit="1"/><line id="ejRSOGm9MpE14" x1="51.060000" y1="21.040000" x2="51.060000" y2="27.450000" fill="none" stroke="rgb(250,181,56)" stroke-width="0.750000" stroke-linecap="round" stroke-linejoin="round" stroke-miterlimit="1" stroke-dasharray="4.270000,4.270000"/><line id="ejRSOGm9MpE15" x1="51.060000" y1="29.580000" x2="51.060000" y2="32.580000" fill="none" stroke="rgb(250,181,56)" stroke-width="0.750000" stroke-linecap="round" stroke-linejoin="round" stroke-miterlimit="1"/></g></g><g id="ejRSOGm9MpE16_to" transform="translate(84.252102,97.278835)"><g id="ejRSOGm9MpE16" transform="translate(-84.252092,-95.059820)"><path id="ejRSOGm9MpE17" d="M107.370000,50.540000C107.370000,59.330000,102.810000,66.960000,89.370000,69L89.370000,70C89.414670,71.470181,88.850956,72.893689,87.811848,73.934690C86.772740,74.975691,85.350260,75.541995,83.880000,75.500000L80.780000,75.500000C79.272027,75.569046,77.804632,75.000199,76.737216,73.932784C75.669801,72.865368,75.100954,71.397973,75.170000,69.890000L75.170000,64.290000C75.007683,61.272249,77.269098,58.670073,80.280000,58.410000C88.580000,57.410000,91.820000,55.890000,91.820000,51.930000C91.820000,48.360000,87.820000,47.200000,82.590000,47.200000C78.456142,47.311693,74.393154,48.300171,70.670000,50.100000C67.260000,51.470000,64.670000,50.480000,63.310000,47.790000L61.770000,44.790000C61.083045,43.505462,60.946336,41.997265,61.391120,40.610142C61.835904,39.223018,62.824160,38.075544,64.130000,37.430000C69.620000,34,77.210000,33,82.650000,33C96.270000,33,107.370000,37.890000,107.370000,50.580000ZM73.200000,88.440000C73.092010,85.248801,74.732869,82.252691,77.479933,80.625100C80.226997,78.997510,83.643003,78.997510,86.390067,80.625100C89.137131,82.252691,90.777990,85.248801,90.670000,88.440000C90.510640,93.149215,86.646911,96.884407,81.935000,96.884407C77.223089,96.884407,73.359360,93.149215,73.200000,88.440000Z" transform="matrix(1 0 0 1 0 0.46000000000000)" fill="rgb(241,139,14)" stroke="none" stroke-width="1" stroke-miterlimit="1"/></g></g><g id="ejRSOGm9MpE18_to" transform="translate(44.804248,71.251969)"><g id="ejRSOGm9MpE18" transform="translate(-48.212426,-70.234631)"><circle id="ejRSOGm9MpE19" style="mix-blend-mode:multiply" r="19.100000" transform="matrix(1 0 0 1 57.10000000000000 60.05969902000000)" fill="rgb(185,137,208)" stroke="none" stroke-width="1" stroke-miterlimit="1"/><path id="ejRSOGm9MpE20" d="M17.460000,102.370000L17.460000,102.370000C16.119856,101.027158,16.119856,98.852842,17.460000,97.510000L40.140000,74.830000C41.482842,73.489856,43.657158,73.489856,45,74.830000L45,74.830000C45.646083,75.473622,46.009256,76.348039,46.009256,77.260000C46.009256,78.171961,45.646083,79.046378,45,79.690000L22.320000,102.370000C21.676378,103.016083,20.801961,103.379256,19.890000,103.379256C18.978039,103.379256,18.103622,103.016083,17.460000,102.370000Z" transform="matrix(1 0 0 1 0 0.46000000000000)" fill="rgb(216,53,130)" stroke="none" stroke-width="1" stroke-miterlimit="1"/><path id="ejRSOGm9MpE21" d="M16.060000,103.770000C13.958833,101.652834,13.958833,98.237166,16.060000,96.120000L26.600000,85.590000C27.945456,84.132630,29.980551,83.528383,31.903314,84.015375C33.826077,84.502367,35.328180,86.002506,35.817687,87.924630C36.307193,89.846755,35.705609,91.882639,34.250000,93.230000L23.710000,103.760000C22.700170,104.778981,21.324600,105.351535,19.890000,105.350000C18.455120,105.348052,17.078896,104.780315,16.060000,103.770000Z" transform="matrix(1 0 0 1 0 0.46000000000000)" fill="rgb(0,171,219)" stroke="none" stroke-width="1" stroke-miterlimit="1"/><path id="ejRSOGm9MpE22" d="M31.140000,59.630000C31.127863,49.353938,37.308673,40.082973,46.799036,36.142081C56.289398,32.201190,67.219308,34.366895,74.489879,41.628878C81.760449,48.890862,83.939070,59.818204,80.009397,69.313217C76.079723,78.808230,66.816070,84.999993,56.540000,85C42.530508,84.983512,31.173045,73.639462,31.140000,59.630000ZM38.020000,59.630000C38.015955,67.121549,42.525642,73.877682,49.445771,76.747377C56.365900,79.617072,64.333321,78.035049,69.632078,72.739154C74.930834,67.443258,76.517161,59.476692,73.651204,52.555014C70.785246,45.633337,64.031551,41.120001,56.540000,41.120000C51.625538,41.117347,46.911306,43.067066,43.434382,46.540239C39.957457,50.013413,38.002651,54.725538,38,59.640000Z" transform="matrix(1 0 0 1 0 0.46000000000000)" fill="rgb(235,61,125)" stroke="none" stroke-width="1" stroke-miterlimit="1"/><path id="ejRSOGm9MpE23" d="M43.770000,70.380000C44.602054,72.395764,46.376111,73.870402,48.510000,74.320000C48.681608,74.389139,48.877675,74.353496,49.013970,74.228383C49.150265,74.103271,49.202522,73.910964,49.148292,73.734079C49.094061,73.557194,48.942998,73.427222,48.760000,73.400000C46.966880,73.027608,45.471389,71.797567,44.760000,70.110000C44.540000,69.540000,43.540000,69.810000,43.770000,70.380000Z" transform="matrix(1 0 0 1 0 0.46000000000000)" fill="rgb(255,255,255)" stroke="none" stroke-width="1" stroke-miterlimit="1"/><path id="ejRSOGm9MpE24" d="M68.240000,49C69.946230,50.144106,70.978768,52.055797,71,54.110000C71.030376,54.413757,71.301243,54.635376,71.605000,54.605000C71.908757,54.574624,72.130376,54.303757,72.100000,54C72.034805,51.574157,70.787501,49.333492,68.760000,48C68.160000,47.620000,67.650000,48.660000,68.240000,49Z" transform="matrix(1 0 0 1 0 0.46000000000000)" fill="rgb(255,255,255)" stroke="none" stroke-width="1" stroke-miterlimit="1"/></g></g></g></g></svg>