<svg xmlns="http://www.w3.org/2000/svg" width="40" height="30.968" viewBox="0 0 40 30.968"><defs><style>.a{fill:#1a1444;}</style></defs><path class="a" d="M40.659,18.4,21.3,8.076a.644.644,0,0,0-.607,0L1.342,18.4a.645.645,0,0,0,0,1.138l5.465,2.915v8.129H8.1V23.14l1.935,1.032v3.919a2.556,2.556,0,0,0-1.395,4.052,13.177,13.177,0,0,0-.541,3.7v1.831a.646.646,0,0,0,.357.577l.713.357a3.381,3.381,0,0,0,3.022,0l.713-.357a.644.644,0,0,0,.357-.577V35.847a13.177,13.177,0,0,0-.541-3.7,2.556,2.556,0,0,0-1.395-4.052V24.861l9.374,5a.649.649,0,0,0,.608,0l12.6-6.72v7.122a20.9,20.9,0,0,1-12.517,4.19h-.772a20.76,20.76,0,0,1-6.509-1.045l-.4,1.226a22.049,22.049,0,0,0,6.912,1.11h.772A22.191,22.191,0,0,0,34.945,31.09a.645.645,0,0,0,.249-.509V22.452l5.465-2.915a.645.645,0,0,0,0-1.138ZM11.968,37.279l-.357.178a2.124,2.124,0,0,1-1.868,0l-.356-.178V35.847a11.888,11.888,0,0,1,.351-2.868,2.5,2.5,0,0,0,1.879,0,11.888,11.888,0,0,1,.351,2.868Zm0-6.7a1.29,1.29,0,1,1-1.29-1.29A1.292,1.292,0,0,1,11.968,30.581ZM21,28.559l-9.234-4.925,7.993-4.263A3.278,3.278,0,0,0,21,19.613c1.447,0,2.581-.85,2.581-1.935S22.447,15.742,21,15.742s-2.581.85-2.581,1.935a1.564,1.564,0,0,0,.241.818L10.4,22.9,3.016,18.968,21,9.376l17.984,9.592ZM19.71,17.678c0-.263.5-.645,1.29-.645s1.29.382,1.29.645-.5.645-1.29.645S19.71,17.941,19.71,17.678Z" transform="translate(-1 -8)"/></svg>