<svg xmlns="http://www.w3.org/2000/svg" width="40.171" height="40.171" viewBox="0 0 40.171 40.171"><defs><style>.a{fill:#1a1444;}</style></defs><g transform="translate(-2 -2)"><path class="a" d="M10.131,8.637l-.114.108L9.9,8.637a2.367,2.367,0,0,0-3.219,0,2.156,2.156,0,0,0,0,3.151l2.872,2.724a.67.67,0,0,0,.922,0l2.872-2.724a2.156,2.156,0,0,0,0-3.151A2.367,2.367,0,0,0,10.131,8.637Zm2.3,2.18-2.411,2.288L7.606,10.817a.817.817,0,0,1,0-1.208,1.011,1.011,0,0,1,1.376,0l.574.545a.67.67,0,0,0,.921,0l.574-.545h0a1.011,1.011,0,0,1,1.376,0,.817.817,0,0,1,0,1.208Z" transform="translate(-1.322 -1.985)"/><path class="a" d="M38.823,5.348H14.487A6.655,6.655,0,0,0,8.719,2H8.7A6.738,6.738,0,0,0,2,8.489a6.691,6.691,0,0,0,12.484,3.554H28.781v4.409l-3.375,3.375A4.014,4.014,0,1,0,19.1,24.764H15.668l-3.821-3.821a.669.669,0,0,0-.947,0L8.891,22.951a.669.669,0,0,0,0,.947l4.687,4.687a.67.67,0,0,0,.473.2h4.017V41.5a.669.669,0,0,0,.67.67h6.7a.669.669,0,0,0,.67-.67V33.467h2.009a.669.669,0,0,0,.67-.67V28.111a3.352,3.352,0,0,0-3.348-3.348h-.362a3.964,3.964,0,0,0,.914-3.623L29.924,17.2a.669.669,0,0,0,.2-.473V12.043h8.7a3.348,3.348,0,1,0,0-6.7ZM27.442,28.111v4.017H26.1V28.111H24.764V40.832H22.755V33.467H21.416v7.365H19.407V28.111a.669.669,0,0,0-.67-.67H14.329l-4.017-4.017,1.062-1.062,3.544,3.544a.67.67,0,0,0,.473.2H25.433a2.011,2.011,0,0,1,2.009,2.009Zm-8.034-6.026a2.678,2.678,0,1,1,2.678,2.678A2.681,2.681,0,0,1,19.407,22.085ZM38.823,10.7H14.087a.669.669,0,0,0-.6.371A5.353,5.353,0,0,1,3.342,8.529,5.39,5.39,0,0,1,8.7,3.339h.019a5.33,5.33,0,0,1,4.773,2.976.669.669,0,0,0,.6.371H38.823a2.009,2.009,0,0,1,0,4.017Z"/><path class="a" d="M20,11H38.746v1.339H20Z" transform="translate(-5.949 -2.974)"/></g></svg>