<svg xmlns="http://www.w3.org/2000/svg" width="39.193" height="27.771" viewBox="0 0 39.193 27.771"><defs><style>.a{fill:#1a1444;}</style></defs><g transform="translate(-4.061 -5.081)"><path class="a" d="M25.3,15.5a.769.769,0,0,0-1.217.938,5.764,5.764,0,0,1,1.208,3.55.768.768,0,0,0,1.537,0A7.289,7.289,0,0,0,25.3,15.5Z" transform="translate(9.563 4.447)"/><path class="a" d="M32.279,14.794a5.857,5.857,0,1,0-6.539,0A10.123,10.123,0,0,0,22.6,16.531a4.321,4.321,0,0,0-6,0,10.13,10.13,0,0,0-3.144-1.738,5.856,5.856,0,1,0-6.539,0A10.2,10.2,0,0,0,0,24.419c0,.007,0,.013,0,.02,0,1.18.67,2.921,3.865,4.516a29.436,29.436,0,0,0,9.045,2.471,51.35,51.35,0,0,0,6.687.425,51.353,51.353,0,0,0,6.688-.425,29.434,29.434,0,0,0,9.044-2.471c3.194-1.6,3.864-3.336,3.864-4.516A10.2,10.2,0,0,0,32.279,14.794ZM24.691,9.937a4.32,4.32,0,1,1,4.32,4.319A4.325,4.325,0,0,1,24.691,9.937ZM17.3,18.058a2.791,2.791,0,0,1,4.587,0h0a2.792,2.792,0,1,1-4.587,0ZM5.864,9.937a4.319,4.319,0,1,1,4.319,4.319A4.324,4.324,0,0,1,5.864,9.937Zm6.378,19.842a26.66,26.66,0,0,1-7.69-2.2c-1.938-.968-3.008-2.08-3.014-3.132,0,0,0-.006,0-.009a8.645,8.645,0,0,1,14.156-6.662,4.327,4.327,0,0,0,1.142,5.2A7.366,7.366,0,0,0,12.242,29.779Zm13.174.206a50.38,50.38,0,0,1-5.819.329,50.372,50.372,0,0,1-5.818-.329V29.8a5.819,5.819,0,0,1,11.637,0Zm9.226-2.4a26.661,26.661,0,0,1-7.69,2.2,7.367,7.367,0,0,0-4.594-6.8,4.325,4.325,0,0,0,1.142-5.2,8.645,8.645,0,0,1,14.156,6.662C37.656,25.494,36.586,26.61,34.642,27.58Z" transform="translate(4.061 1)"/><path class="a" d="M23.472,14.128a.769.769,0,0,0,0,1.537A.769.769,0,0,0,23.472,14.128Z" transform="translate(9.087 4.017)"/></g></svg>