<svg xmlns="http://www.w3.org/2000/svg" width="40" height="29.015" viewBox="0 0 40 29.015"><defs><style>.a{fill:#1a1444;}</style></defs><path class="a" d="M36.949,87.773h-.887V86.8a3.348,3.348,0,0,0-.606-1.924,11.218,11.218,0,0,0,.889-5.071,10.673,10.673,0,0,0-2.691-6.664A8.235,8.235,0,0,0,27.537,70.3a12,12,0,0,0-7.525,3.211,11.582,11.582,0,0,0-7.55-3.211,8.235,8.235,0,0,0-6.116,2.836A10.673,10.673,0,0,0,3.656,79.8a11.226,11.226,0,0,0,.889,5.071A3.348,3.348,0,0,0,3.939,86.8v.975H3.051a3.061,3.061,0,0,0,0,6.122h.887v.975a3.345,3.345,0,0,0,5.487,2.584,3.346,3.346,0,0,0,6.346-1.5v-.184c2.162,1.542,3.786,2.637,3.805,2.65a.781.781,0,0,0,.873,0c.019-.013,1.629-1.1,3.777-2.63v.165a3.346,3.346,0,0,0,6.346,1.5,3.345,3.345,0,0,0,5.487-2.584V93.9h.887a3.061,3.061,0,0,0,0-6.122Zm-31.733-7.9c.211-4.418,3.462-8.012,7.246-8.012,4,0,6.925,3.225,6.953,3.257a.782.782,0,0,0,1.152.018c.031-.033,3.145-3.275,6.969-3.275,3.784,0,7.035,3.594,7.246,8.012A9.679,9.679,0,0,1,34.2,83.79a3.331,3.331,0,0,0-3.628.425,3.346,3.346,0,0,0-6.346,1.5v2.063H15.773V85.711a3.346,3.346,0,0,0-6.346-1.5A3.332,3.332,0,0,0,5.8,83.79,9.684,9.684,0,0,1,5.216,79.877Zm10.556,9.458h8.455v3H15.773Zm-12.721,3a1.5,1.5,0,0,1,0-3h.887v3H3.051Zm4.237,4.336a1.794,1.794,0,0,1-1.787-1.8V86.8a1.787,1.787,0,1,1,3.573,0v8.073A1.794,1.794,0,0,1,7.288,96.669Zm6.922-.711a1.787,1.787,0,1,1-3.573,0V85.711a1.787,1.787,0,1,1,3.573,0Zm5.8.873c-.735-.5-2.322-1.6-4.18-2.936h8.358c-1.856,1.339-3.443,2.434-4.178,2.936Zm9.349-.873a1.787,1.787,0,1,1-3.573,0V85.711a1.787,1.787,0,1,1,3.573,0ZM34.5,94.871a1.787,1.787,0,1,1-3.573,0V86.8a1.787,1.787,0,1,1,3.573,0Zm2.45-2.538h-.887v-3h.887a1.5,1.5,0,0,1,0,3Z" transform="translate(0 -70.303)"/></svg>