<svg xmlns="http://www.w3.org/2000/svg" width="40.403" height="40.407" viewBox="0 0 40.403 40.407"><defs><style>.a{fill:#1a1444;stroke:#fff;stroke-width:0.4px;}</style></defs><g transform="translate(0.157 0.2)"><g transform="translate(0.043)"><path class="a" d="M39.814,16.826a.782.782,0,0,0-.707-.213l-6.734,1.355a.781.781,0,0,0-.4,1.318l.911.911-3.575,3.575-2.768-2.768a.781.781,0,0,0-1.1,0l-3.4,3.4,1.274-4.578a3.668,3.668,0,0,0-2.244-4.415L22.09,12.5c.281.025.561.037.839.037A9.715,9.715,0,0,0,29.123,10.3l.186-.155a2.177,2.177,0,0,0,.357-3.012,2.167,2.167,0,0,0-3.1-.343l-.212.176a5.38,5.38,0,0,1-1.013.664,3.24,3.24,0,0,1-3.709-.652,3.571,3.571,0,1,0-3.938-1.312,4.07,4.07,0,0,0-2.1,1.185.78.78,0,0,0-.092.094,10.6,10.6,0,0,1-5.31,3.509A2.161,2.161,0,0,0,8.9,11.469l-1.6-1.6a1.8,1.8,0,0,0-2.541,0l-2.1,2.1h0l-2.1,2.1a1.8,1.8,0,0,0,0,2.541l5.774,5.774a1.8,1.8,0,0,0,2.541,0l2.17-2.17-1.029,2.7a.781.781,0,1,0,1.46.557l2.563-6.719h5.737A2.1,2.1,0,0,1,21.81,19.4l-1.775,6.379a.668.668,0,0,1-.642.488.666.666,0,0,1-.658-.771l.945-5.939a.781.781,0,0,0-.772-.9H17.056a.781.781,0,0,0-.7.429c-.046.09-4.579,9.054-6.107,12.082a.8.8,0,0,1-.826.43l-.037-.005a.764.764,0,0,1-.612-1.03L9.259,29.3a.781.781,0,0,0-1.46-.557l-.481,1.262a2.327,2.327,0,0,0,1.862,3.135l.037,0a2.37,2.37,0,0,0,2.432-1.274c1.334-2.646,4.963-9.822,5.889-11.652h.457l-.8,5.035a2.228,2.228,0,0,0,1.523,2.473l-8.7,8.7a.781.781,0,0,0,0,1.1l2.241,2.241a.781.781,0,0,0,1.1,0l4.308-4.308a.781.781,0,0,0-1.105-1.105L12.805,38.12l-1.136-1.136L25.991,22.663l2.768,2.768a.781.781,0,0,0,1.1,0l4.68-4.68a.781.781,0,0,0,0-1.105l-.433-.433,4.153-.836-.836,4.153-.643-.643a.782.782,0,0,0-1.105,0l-6.369,6.369-2.768-2.768a.782.782,0,0,0-1.105,0l-4.458,4.458a.781.781,0,0,0,1.105,1.105l3.9-3.9,2.768,2.768a.782.782,0,0,0,1.105,0l6.369-6.369,1.122,1.122a.781.781,0,0,0,1.318-.4l1.355-6.734A.782.782,0,0,0,39.814,16.826ZM20.577,1.563a2,2,0,1,1-2,2A2.007,2.007,0,0,1,20.577,1.563ZM12.846,15.412l-.951-.951q.677-.221,1.329-.5ZM10.209,12.7a.606.606,0,0,1,.414-.749,12.187,12.187,0,0,0,3.562-1.687l-.441,1.7a13.475,13.475,0,0,1-2.786,1.154l-.056.013a.6.6,0,0,1-.409-.07l-.229-.229A.6.6,0,0,1,10.209,12.7ZM5.866,10.973a.235.235,0,0,1,.332,0l2.848,2.848a2.148,2.148,0,0,0,.467.467l2.459,2.459a.235.235,0,0,1,0,.331l-1.543,1.543L8.712,16.906l.327-.327a.781.781,0,0,0,0-1.105L7.28,13.715a.782.782,0,0,0-1.105,0l-.327.327L4.322,12.516Zm1.069,5.5a.293.293,0,0,1-.415,0h0l-.239-.239a.293.293,0,0,1,0-.415l.446-.446.654.654Zm.845,4.8a.234.234,0,0,1-.331,0L1.674,15.5a.234.234,0,0,1,0-.331l1.543-1.543,1.6,1.6a1.858,1.858,0,0,0,.36,2.119l.239.239h0a1.858,1.858,0,0,0,2.119.36l1.789,1.789Zm11.161-6.092H14.521l1.605-6.17A2.5,2.5,0,0,1,18.55,7.134a2.477,2.477,0,0,1,1.834.8,4.817,4.817,0,0,0,5.66,1.089,6.937,6.937,0,0,0,1.308-.857l.212-.176a.6.6,0,0,1,.866.1.627.627,0,0,1-.118.855l-.186.155a8.1,8.1,0,0,1-6.444,1.781.781.781,0,0,0-.858.514L19.5,15.178Z" transform="translate(-0.043)"/><path class="a" d="M237.972,408.8a.977.977,0,1,0,.69.286A.984.984,0,0,0,237.972,408.8Z" transform="translate(-218.67 -377.184)"/><path class="a" d="M113.862,326.093a.975.975,0,1,0-.691-.286A.984.984,0,0,0,113.862,326.093Z" transform="translate(-104.159 -299.071)"/></g></g></svg>