<svg xmlns="http://www.w3.org/2000/svg" width="40.031" height="38.613" viewBox="0 0 40.031 38.613"><defs><style>.a{fill:#1a1444;}</style></defs><g transform="translate(0 -6.948)"><g transform="translate(5.363 39.071)"><path class="a" d="M54.84,323.088l-.04-.033c-.408-.339-.816-.7-1.192-1.077a.61.61,0,1,0-.861.865A15.627,15.627,0,0,0,54.021,324a.612.612,0,0,0,.819-.91Z" transform="translate(-52.569 -321.801)"/></g><g transform="translate(0.126 22.175)"><path class="a" d="M2.335,156.231a.612.612,0,0,0-.812.523c-.122.559-.216,1.126-.286,1.694a.612.612,0,0,0,.518.686h.078a.612.612,0,0,0,.608-.539c.065-.531.155-1.065.269-1.583A.612.612,0,0,0,2.335,156.231Z" transform="translate(-1.232 -156.197)"/></g><g transform="translate(2.566 35.475)"><path class="a" d="M27.176,288.2c-.314-.433-.612-.882-.886-1.339a.612.612,0,0,0-.839-.213h0a.612.612,0,0,0-.213.839v0c.294.49.612.971.951,1.432a.612.612,0,0,0,.988-.722Z" transform="translate(-25.15 -286.562)"/></g><g transform="translate(0.722 31.293)"><path class="a" d="M8.811,247.526c-.2-.494-.375-1-.526-1.518a.612.612,0,0,0-.758-.417l-.017.005a.612.612,0,0,0-.408.759c.163.547.351,1.094.563,1.632a.618.618,0,0,0,1.147-.461Z" transform="translate(-7.076 -245.566)"/></g><g transform="translate(1.256 17.947)"><g transform="translate(0 0)"><path class="a" d="M13.876,114.819a.612.612,0,0,0-.822.271c-.257.51-.494,1.037-.7,1.571a.611.611,0,0,0,1.137.448v0a14.719,14.719,0,0,1,.657-1.465A.612.612,0,0,0,13.876,114.819Z" transform="translate(-12.309 -114.753)"/></g></g><g transform="translate(0 26.802)"><g transform="translate(0)"><path class="a" d="M1.355,203.744v0c-.065-.531-.11-1.069-.131-1.6A.613.613,0,1,0,0,202.188,13.416,13.416,0,0,0,.139,203.9a.612.612,0,0,0,.592.526H.825A.612.612,0,0,0,1.355,203.744Z" transform="translate(0 -201.553)"/></g></g><g transform="translate(14.665 8.017)"><path class="a" d="M146.668,17.984a.615.615,0,0,0-.671-.553c-.567.057-1.139.139-1.7.249a.615.615,0,1,0,.114,1.224l0-.016h.118c.526-.1,1.061-.18,1.592-.233A.615.615,0,0,0,146.668,17.984Z" transform="translate(-143.738 -17.428)"/></g><g transform="translate(3.426 14.154)"><path class="a" d="M35.637,77.735a.616.616,0,0,0-.869.053c-.375.428-.735.881-1.069,1.347a.612.612,0,0,0,.494.971v.008a.612.612,0,0,0,.5-.253c.314-.433.649-.857,1-1.257A.616.616,0,0,0,35.637,77.735Z" transform="translate(-33.582 -77.58)"/></g><g transform="translate(19.27 7.941)"><g transform="translate(0 0)"><path class="a" d="M191.233,16.866c-.563-.086-1.139-.147-1.71-.18a.613.613,0,1,0-.073,1.224c.539.041,1.073.1,1.6.18h.094a.614.614,0,1,0,.09-1.224Z" transform="translate(-188.873 -16.685)"/></g></g><g transform="translate(6.541 11.143)"><path class="a" d="M66.532,48.313a.612.612,0,0,0-.824-.152c-.469.322-.93.673-1.371,1.037a.613.613,0,1,0,.784.943c.408-.343.841-.669,1.281-.971A.612.612,0,0,0,66.532,48.313Z" transform="translate(-64.116 -48.064)"/></g><g transform="translate(10.396 9.013)"><path class="a" d="M107.816,45.652h0Z" transform="translate(-107.201 -43.768)"/><path class="a" d="M104.666,27.639a.612.612,0,0,0-.836-.4,15.293,15.293,0,0,0-1.583.665.609.609,0,1,0,.51,1.106c.482-.229.979-.437,1.481-.62A.612.612,0,0,0,104.666,27.639Z" transform="translate(-101.892 -27.189)"/></g><g transform="translate(17.683 44.299)"><path class="a" d="M176.209,373.618a.613.613,0,0,0-.651-.573,15.107,15.107,0,0,1-1.608.037.612.612,0,0,0-.033,1.224h.518c.408,0,.816,0,1.2-.037A.613.613,0,0,0,176.209,373.618Z" transform="translate(-173.322 -373.044)"/></g><g transform="translate(35.346 30.673)"><path class="a" d="M347.694,239.508a.613.613,0,0,0-.745.443c-.131.518-.29,1.033-.469,1.534a.611.611,0,0,0,1.154.4v0c.192-.539.359-1.09.5-1.632A.613.613,0,0,0,347.694,239.508Z" transform="translate(-346.447 -239.489)"/></g><g transform="translate(35.821 21.566)"><g transform="translate(0 0)"><path class="a" d="M352.653,152.346c-.094-.563-.212-1.13-.355-1.681a.612.612,0,0,0-1.183.31c.135.514.245,1.045.335,1.571a.612.612,0,0,0,.6.5h.1A.612.612,0,0,0,352.653,152.346Z" transform="translate(-351.099 -150.23)"/></g></g><g transform="translate(4.364 6.948)"><g transform="translate(0 0)"><path class="a" d="M78.387,16.656a.594.594,0,0,0-.116-.169l-1.081-1.126a.592.592,0,0,0-.592-.147l-1.951.592-2.285-2.424,5.13-2.857a.6.6,0,0,0,.175-.959L76.226,8.126a.6.6,0,0,0-.592-.139l-6.5,1.967L66.946,7.632A1.979,1.979,0,0,0,64.693,7.1h-.037a2.408,2.408,0,0,0-1.31,1.31,2.206,2.206,0,0,0-.131.482L62.967,8.8a.613.613,0,1,0-.375,1.167c.314.1.628.216.943.335a2.35,2.35,0,0,0,.331.408L66.17,12.9l-.661,2.183a14.381,14.381,0,1,0,3.04,2.93l1.045-1.885,2.424,2.285-.584,1.93a.592.592,0,0,0,.143.6s1.2,1.183,1.224,1.224a.592.592,0,0,0,.809-.215l.007-.013,1.6-2.926L78.1,17.447A.6.6,0,0,0,78.387,16.656Zm-30.471.807a13.1,13.1,0,0,1,9.276-3.836q.408,0,.816.024c2.314,2.134,1.632,4.081.082,5.836a28.646,28.646,0,0,1-2.938,2.71c-1.506,1.281-2.91,2.477-3.44,3.673-.628,1.42-.167,2.706,2.371,3.828a6.672,6.672,0,0,1,2.228,1.33.066.066,0,0,0,.012.011l-.028.009a5.072,5.072,0,0,1-1.926.331c-3.077.131-5.269-1.836-6.97-3.359-1.224-1.09-2.24-2-3.3-2A13.1,13.1,0,0,1,47.916,17.463Zm22.441,9.3h0A13.157,13.157,0,0,1,61.3,39.26a4.281,4.281,0,0,1,.5-2.779,10.118,10.118,0,0,1,2.449-2.693c3.767-3.142,3.979-4.9,4.142-6.248.1-.853.18-1.49,1.865-2.416A13.3,13.3,0,0,1,70.358,26.76ZM69.6,22.344a13.02,13.02,0,0,1,.449,1.571c-2.567,1.306-2.681,2.236-2.836,3.506-.139,1.143-.318,2.636-3.722,5.477a11.162,11.162,0,0,0-2.734,3.032,5.412,5.412,0,0,0-.612,3.644A13.149,13.149,0,0,1,44.072,27.221c.649,0,1.49.771,2.522,1.69,1.869,1.669,4.261,3.8,7.823,3.673a6.121,6.121,0,0,0,2.449-.465,1.224,1.224,0,0,0,.677-.767,1.167,1.167,0,0,0-.294-1.065,7.622,7.622,0,0,0-2.669-1.669c-1.726-.763-2.1-1.506-1.763-2.265.408-.955,1.722-2.041,3.118-3.265A29.707,29.707,0,0,0,59,20.23c1.706-1.943,2.583-4.061.849-6.379a13.059,13.059,0,0,1,5.305,2.412l-.939,3.1a.6.6,0,0,0,.143.6s1.522,1.51,1.571,1.539a.592.592,0,0,0,.809-.215l.007-.013,1.188-2.147A13.121,13.121,0,0,1,69.6,22.344Zm5.473-4.558-.526.261a.588.588,0,0,0-.269.273l-.261.531L73,20.687l-.3-.326.592-1.955a.592.592,0,0,0-.192-.628l-3.22-3.032a.592.592,0,0,0-.837.007l-.016.017c-.041.045-2.938,5.264-2.938,5.264l-.633-.633,1.975-6.509a.592.592,0,0,0-.192-.633L64.677,9.848a.849.849,0,0,1-.233-.979,1.282,1.282,0,0,1,.665-.661h.02a.849.849,0,0,1,.955.245l2.449,2.587a.592.592,0,0,0,.6.163l6.53-1.971.633.633-5.183,2.849a.592.592,0,0,0-.236.8l.007.013c.024.045,3.146,3.367,3.146,3.367a.592.592,0,0,0,.6.159l1.963-.592.306.306Z" transform="translate(-42.775 -6.948)"/></g></g><g transform="translate(33.288 34.909)"><g transform="translate(0 0)"><path class="a" d="M328.064,281.1l-.027-.015a.612.612,0,0,0-.816.241c-.257.469-.539.93-.841,1.371a.614.614,0,0,0,1,.706c.318-.473.62-.967.9-1.465A.612.612,0,0,0,328.064,281.1Z" transform="translate(-326.269 -281.013)"/></g></g><g transform="translate(36.323 26.058)"><path class="a" d="M356.715,194.255a.612.612,0,0,0-.621.6c0,.008,0,.017,0,.025v.069c0,.535-.024,1.073-.073,1.608a.612.612,0,0,0,.554.665h.058a.612.612,0,0,0,.616-.567c.053-.567.078-1.143.078-1.714v-.082A.612.612,0,0,0,356.715,194.255Z" transform="translate(-356.019 -194.255)"/></g><g transform="translate(13.142 43.637)"><path class="a" d="M131.194,366.949a12.643,12.643,0,0,1-1.567-.359.612.612,0,1,0-.406,1.155.619.619,0,0,0,.072.02c.547.155,1.11.29,1.673.408h.114a.615.615,0,0,0,.114-1.224Z" transform="translate(-128.811 -366.555)"/></g><g transform="translate(22.229 43.444)"><path class="a" d="M220.643,365.066a.612.612,0,0,0-.742-.377v.016a12.159,12.159,0,0,1-1.547.408.613.613,0,0,0,.269,1.2c.555-.127,1.114-.282,1.657-.457A.612.612,0,0,0,220.643,365.066Z" transform="translate(-217.876 -364.665)"/></g><g transform="translate(8.978 41.849)"><path class="a" d="M90.344,349.876c-.486-.241-.963-.5-1.424-.763a.613.613,0,1,0-.62,1.057c.494.29,1,.559,1.522.816a.613.613,0,1,0,.522-1.11Z" transform="translate(-87.997 -349.029)"/></g><g transform="translate(30.277 38.598)"><g transform="translate(0 0)"><path class="a" d="M298.964,317.331a.612.612,0,0,0-.854.028h0a14.882,14.882,0,0,1-1.151,1.122.613.613,0,1,0,.816.914c.408-.38.841-.784,1.224-1.2A.612.612,0,0,0,298.964,317.331Z" transform="translate(-296.758 -317.171)"/></g></g><g transform="translate(26.512 41.514)"><path class="a" d="M262.454,346.044a.612.612,0,0,0-.84-.211l-.029.018v-.016c-.449.286-.918.555-1.392.816a.612.612,0,1,0,.559,1.09c.506-.261,1.008-.551,1.49-.857A.612.612,0,0,0,262.454,346.044Z" transform="translate(-259.861 -345.746)"/></g></g></svg>